<svg width="500" height="308" viewBox="0 0 500 308" fill="none" xmlns="http://www.w3.org/2000/svg">
<path fill-rule="evenodd" clip-rule="evenodd" d="M308.686 0C310.423 0.108578 312.16 0.271431 313.843 0.325719C321.082 0.687645 328.302 1.03149 335.505 1.35722C337.73 1.4658 340.011 1.52009 342.508 1.62866C337.133 12.595 331.487 23.1813 325.461 33.8219C325.081 33.279 324.755 32.899 324.538 32.4647C322.258 28.5921 319.978 24.7014 317.698 20.7926C316.992 19.5982 316.938 19.5983 315.743 20.3583C302.063 29.3159 288.816 38.8165 276.601 49.6742C271.064 54.5602 265.852 59.8262 260.477 64.9294C259.935 65.418 259.5 66.1237 259.12 66.6123C261.509 69.5982 263.952 72.4755 266.123 75.4614C274.43 86.6449 279.75 99.077 282.302 112.758C283.985 121.607 284.365 130.565 283.713 139.576C282.193 159.935 274.647 177.741 261.455 193.268C251.52 205.049 239.685 214.169 225.461 220.195C217.861 223.453 209.935 225.624 201.737 226.764C193.974 227.796 186.21 227.904 178.447 227.253C167.861 226.384 157.6 224.104 147.991 219.435C131.433 211.346 117.426 200.217 107.166 184.745C99.8912 173.778 95.1681 161.781 92.7793 148.914C91.2593 140.717 91.0964 132.519 91.6393 124.213C92.2365 114.495 94.1909 105.049 97.7196 95.9283C103.311 81.8675 111.835 69.924 123.018 59.8262C131.433 52.2258 140.825 46.0912 151.411 41.8566C159.12 38.8165 167.101 36.8621 175.298 35.8849C181.053 35.1791 186.862 34.962 192.616 35.2334C213.029 36.1563 231.324 42.8339 247.285 55.7546C248.045 56.3518 248.86 56.9489 249.565 57.6004C250.217 58.3061 250.705 58.1433 251.303 57.6004C253.528 55.7003 255.7 53.8002 257.98 51.9544C270.575 41.6395 283.985 32.4647 297.937 24.1042C302.063 21.6612 306.297 19.2725 310.477 16.8838C311.183 16.5038 311.943 16.2323 312.649 15.9066C314.006 15.2551 314.223 14.4408 313.463 13.1922C311.075 9.21099 308.704 5.21173 306.352 1.19436C306.134 0.868627 306.189 0.380022 306.08 0H308.686ZM250 77.2529C249.511 77.7958 249.077 78.1758 248.751 78.6644C243.919 84.9619 239.739 91.748 235.45 98.4798C225.678 113.898 216.884 129.859 209.989 146.797C207.709 152.389 205.646 158.143 203.474 163.789C203.149 164.549 202.714 165.418 202.117 165.852C193.865 171.444 185.613 176.981 177.361 182.519C175.298 183.876 175.515 183.713 174.701 181.596C171.824 174.267 169.055 166.829 165.961 159.5C162.812 151.954 159.283 144.571 155.266 137.459C150.977 129.913 145.385 123.778 137.296 120.25C136.59 119.978 136.536 119.544 137.079 119.001C139.793 116.178 142.399 113.192 145.277 110.532C148.805 107.22 152.823 104.56 157.492 103.04C159.826 102.28 162.106 101.846 164.549 102.389C167.264 102.986 169.381 104.506 171.281 106.46C174.213 109.5 176.547 113.029 178.664 116.667C182.084 122.475 184.799 128.61 187.513 134.745C187.622 135.016 187.73 135.288 188.002 135.776C188.491 135.016 188.816 134.419 189.142 133.822C194.082 125.027 199.511 116.558 205.429 108.415C215.309 94.7882 226.221 82.0847 238.056 70.1411C238.816 69.3811 239.468 68.5667 240.282 67.6981C238.436 66.2866 236.753 64.9294 235.016 63.6807C222.964 54.9945 209.555 50.1628 194.788 49.077C187.948 48.5884 181.162 48.9142 174.43 49.8914C167.372 50.8686 160.64 52.6601 154.18 55.5917C140.282 61.8349 129.207 71.4983 120.195 83.6047C110.532 96.634 105.7 111.401 105.157 127.579C104.994 133.442 105.374 139.305 106.189 145.114C107.166 152.28 109.12 159.229 112.215 165.798C118.458 179.207 127.959 190.011 139.793 198.806C152.063 207.872 165.852 212.703 181.053 213.735C187.188 214.115 193.376 213.843 199.511 213.083C206.243 212.269 212.758 210.695 219.055 208.089C228.99 204.017 237.513 197.937 245.222 190.554C259.935 176.276 268.295 159.012 270.032 138.545C270.684 130.836 270.195 123.073 268.784 115.472C266.648 103.529 261.925 92.7071 254.614 83.0075C253.148 81.1074 251.574 79.2616 250 77.2529Z" fill="#6DB254"/>
<path fill-rule="evenodd" clip-rule="evenodd" d="M258.958 66.6668C259.935 67.8069 260.912 68.8384 261.835 69.9242C271.933 81.8677 278.773 95.4942 281.922 110.912C283.768 119.924 284.31 129.045 283.713 138.274C282.953 150.814 280.185 162.867 274.267 173.996C260.966 199.077 241.151 216.504 213.464 224.322C207.22 226.113 200.814 227.036 194.354 227.416C186.808 227.905 179.316 227.525 171.824 226.493C159.012 224.702 147.34 219.978 136.536 213.029C122.476 204.072 111.021 192.617 103.04 177.85C97.7198 168.133 94.1368 157.763 92.3995 146.743C91.2052 139.251 91.1509 131.705 91.6395 124.104C92.1824 114.821 93.9739 105.809 97.2855 97.1228C103.42 80.9448 113.409 67.5897 126.71 56.6234C138.165 47.1771 151.031 40.7168 165.581 37.5137C175.027 35.3965 184.636 34.745 194.3 35.3422C204.723 35.9394 214.712 38.1109 224.376 42.074C233.605 45.8742 241.911 51.086 249.511 57.5463C250.326 58.2521 250.326 58.5235 249.511 59.3378C246.743 61.8894 243.974 64.4953 241.259 67.1011C240.662 67.644 240.228 67.7526 239.522 67.1554C229.099 58.5778 217.372 52.8232 204.126 50.2716C196.363 48.8058 188.599 48.5344 180.727 49.1316C173.453 49.783 166.287 51.0317 159.338 53.4747C148.208 57.4377 138.654 63.8438 130.239 72.0414C121.281 80.7276 114.278 90.7168 109.935 102.497C107.546 109.012 106.044 115.744 105.429 122.693C104.506 133.985 105.375 145.114 108.523 156.026C111.509 166.45 116.83 175.624 123.833 183.876C131.487 192.888 140.391 200.326 151.031 205.7C159.012 209.664 167.427 212.161 176.33 213.247C184.039 214.17 191.694 214.007 199.403 213.084C217.644 211.021 232.79 202.715 245.711 190.011C256.08 179.805 263.518 167.861 267.372 153.8C269.815 144.734 270.684 135.451 270.087 126.113C269.435 116.504 267.481 107.275 263.626 98.4258C260.369 90.9339 255.917 84.0935 250.489 77.9589C250.054 77.4703 249.891 77.036 250.38 76.4931C251.194 75.4073 252.009 74.3216 252.877 73.2901C254.126 71.8243 255.375 70.3585 256.677 68.8927C257.329 68.1326 258.143 67.4269 258.958 66.6668ZM40.7709 250.054C44.3178 251.575 47.4303 253.674 50.1086 256.352C52.7506 259.03 54.8498 262.143 56.4061 265.69C57.9623 269.236 58.7405 273.037 58.7405 277.09C58.7405 279.805 58.3967 282.411 57.709 284.908C56.9851 287.441 55.9898 289.794 54.7231 291.965C53.4564 294.137 51.9182 296.109 50.1086 297.883C48.2989 299.692 46.3083 301.231 44.1368 302.497C42.0014 303.764 39.667 304.759 37.1335 305.483C34.6363 306.171 32.0304 306.515 29.316 306.515C26.6015 306.515 23.9956 306.171 21.4984 305.483C18.9649 304.759 16.6124 303.764 14.4408 302.497C12.2693 301.231 10.2968 299.692 8.52334 297.883C6.74991 296.109 5.22981 294.137 3.96308 291.965C2.69634 289.794 1.71914 287.441 1.03148 284.908C0.343826 282.411 0 279.805 0 277.09C0 274.376 0.343826 271.77 1.03148 269.273C1.71914 266.775 2.69634 264.441 3.96308 262.269C5.22981 260.098 6.74991 258.125 8.52334 256.352C10.2968 254.578 12.2693 253.04 14.4408 251.737C16.6124 250.471 18.9649 249.493 21.4984 248.806C23.9956 248.118 26.6015 247.774 29.316 247.774C33.3695 247.774 37.1878 248.534 40.7709 250.054ZM20.0869 255.32C17.1915 256.551 14.6942 258.234 12.595 260.369C10.4596 262.505 8.77669 265.002 7.54614 267.861C6.31559 270.72 5.70032 273.797 5.70032 277.09C5.70032 280.42 6.31559 283.514 7.54614 286.374C8.77669 289.233 10.4596 291.73 12.595 293.865C14.6942 296.037 17.1915 297.738 20.0869 298.969C22.9461 300.199 26.0405 300.814 29.3702 300.814C32.6276 300.814 35.7039 300.199 38.5993 298.969C41.4585 297.738 43.9558 296.037 46.0912 293.865C48.2266 291.73 49.9095 289.233 51.14 286.374C52.3706 283.514 52.9859 280.42 52.9859 277.09C52.9859 273.797 52.3706 270.72 51.14 267.861C49.9095 265.002 48.2266 262.505 46.0912 260.369C43.9558 258.234 41.4585 256.551 38.5993 255.32C35.7039 254.09 32.6276 253.475 29.3702 253.475C26.0405 253.475 22.9461 254.09 20.0869 255.32ZM90.228 274.322L107.112 249.186C107.619 248.607 108.234 248.281 108.958 248.209C109.681 248.172 110.333 248.39 110.912 248.86C111.527 249.331 111.907 249.946 112.052 250.706C112.197 251.43 111.962 252.19 111.346 252.986L93.051 279.859V303.149C93.051 303.945 92.7796 304.615 92.2367 305.158C91.6576 305.7 90.988 305.972 90.228 305.972C89.4317 305.972 88.7622 305.7 88.2193 305.158C87.6764 304.615 87.405 303.945 87.405 303.149V279.913L68.8925 253.04C68.3858 252.425 68.1686 251.737 68.241 250.977C68.2772 250.181 68.603 249.512 69.2182 248.969C69.8335 248.462 70.5212 248.227 71.2812 248.263C72.0774 248.299 72.7289 248.643 73.2356 249.294L90.228 274.322Z" fill="#272525"/>
<path fill-rule="evenodd" clip-rule="evenodd" d="M295.44 250.054C298.987 251.574 302.099 253.673 304.777 256.352C307.419 259.03 309.519 262.142 311.075 265.689C312.631 269.236 313.409 273.036 313.409 277.09C313.409 279.804 313.047 282.41 312.323 284.908C311.636 287.441 310.659 289.794 309.392 291.965C308.125 294.137 306.587 296.109 304.777 297.883C302.968 299.692 300.977 301.23 298.806 302.497C296.634 303.764 294.3 304.759 291.802 305.483C289.305 306.171 286.699 306.515 283.985 306.515C281.27 306.515 278.646 306.171 276.113 305.483C273.616 304.759 271.281 303.764 269.11 302.497C266.938 301.23 264.966 299.692 263.192 297.883C261.419 296.109 259.899 294.137 258.632 291.965C257.365 289.794 256.388 287.441 255.7 284.908C255.013 282.41 254.669 279.804 254.669 277.09C254.669 274.376 255.013 271.77 255.7 269.272C256.388 266.775 257.365 264.441 258.632 262.269C259.899 260.098 261.419 258.125 263.192 256.352C264.966 254.578 266.938 253.04 269.11 251.737C271.281 250.47 273.616 249.493 276.113 248.806C278.646 248.118 281.27 247.774 283.985 247.774C288.038 247.774 291.857 248.534 295.44 250.054ZM274.756 255.32C271.86 256.551 269.363 258.234 267.264 260.369C265.128 262.504 263.445 265.002 262.215 267.861C260.984 270.72 260.369 273.796 260.369 277.09C260.369 280.42 260.984 283.514 262.215 286.373C263.445 289.233 265.128 291.73 267.264 293.865C269.363 296.037 271.86 297.738 274.756 298.968C277.615 300.199 280.709 300.814 284.039 300.814C287.296 300.814 290.373 300.199 293.268 298.968C296.127 297.738 298.625 296.037 300.76 293.865C302.895 291.73 304.578 289.233 305.809 286.373C307.039 283.514 307.655 280.42 307.655 277.09C307.655 273.796 307.039 270.72 305.809 267.861C304.578 265.002 302.895 262.504 300.76 260.369C298.625 258.234 296.127 256.551 293.268 255.32C290.373 254.09 287.296 253.474 284.039 253.474C280.709 253.474 277.615 254.09 274.756 255.32ZM344.408 254.397V303.691C344.408 304.488 344.137 305.157 343.594 305.7C343.051 306.243 342.381 306.515 341.585 306.515C340.789 306.515 340.137 306.243 339.631 305.7C339.124 305.157 338.871 304.488 338.871 303.691V254.397H322.258C321.462 254.397 320.793 254.108 320.25 253.529C319.707 252.986 319.435 252.316 319.435 251.52C319.435 250.76 319.707 250.108 320.25 249.566C320.793 249.023 321.462 248.751 322.258 248.751H361.455C362.251 248.751 362.921 249.023 363.463 249.566C364.006 250.145 364.278 250.814 364.278 251.574C364.278 252.407 364.006 253.076 363.463 253.583C362.921 254.126 362.251 254.397 361.455 254.397H344.408ZM381.433 307.275C380.637 307.202 380.003 306.876 379.533 306.297C379.026 305.754 378.773 305.067 378.773 304.234V251.086C378.773 250.217 379.062 249.511 379.642 248.968C380.221 248.426 380.926 248.154 381.759 248.154H410.749C411.545 248.154 412.215 248.426 412.758 248.968C413.301 249.547 413.572 250.253 413.572 251.086C413.572 251.882 413.301 252.551 412.758 253.094C412.215 253.673 411.545 253.963 410.749 253.963H384.582V274.918H405.863C406.695 274.882 407.383 275.136 407.926 275.678C408.469 276.258 408.74 276.945 408.74 277.741C408.74 278.538 408.469 279.207 407.926 279.75C407.383 280.293 406.695 280.564 405.863 280.564H384.582V301.466H410.749C411.545 301.466 412.215 301.755 412.758 302.334C413.301 302.877 413.572 303.547 413.572 304.343C413.572 305.175 413.301 305.881 412.758 306.46C412.215 307.039 411.545 307.311 410.749 307.275H381.433ZM444.951 276.33C442.598 275.534 440.481 274.538 438.599 273.344C436.753 272.113 435.251 270.648 434.093 268.947C432.935 267.246 432.356 265.237 432.356 262.921C432.356 260.568 432.935 258.451 434.093 256.569C435.251 254.687 436.771 253.094 438.653 251.791C440.535 250.488 442.653 249.475 445.005 248.751C447.394 248.064 449.801 247.72 452.226 247.72C454.216 247.72 456.134 247.901 457.98 248.263C459.862 248.625 461.618 249.149 463.246 249.837C464.839 250.561 466.305 251.429 467.644 252.443C468.947 253.492 470.05 254.705 470.955 256.08C471.317 256.623 471.39 257.184 471.172 257.763C470.991 258.306 470.72 258.74 470.358 259.066C469.851 259.464 469.218 259.699 468.458 259.772C467.698 259.844 466.974 259.645 466.286 259.175C464.296 257.039 462.197 255.537 459.989 254.669C457.745 253.836 455.193 253.42 452.334 253.42C450.742 253.42 449.149 253.619 447.557 254.017C445.964 254.415 444.517 255.013 443.214 255.809C441.911 256.569 440.843 257.546 440.011 258.74C439.178 259.935 438.762 261.31 438.762 262.866C438.762 264.531 439.251 265.906 440.228 266.992C441.241 268.114 442.49 269.037 443.974 269.761C445.494 270.521 447.141 271.136 448.914 271.607C450.724 272.077 452.443 272.494 454.071 272.855C456.569 273.543 459.012 274.321 461.4 275.19C463.789 276.058 465.906 277.126 467.752 278.393C469.598 279.66 471.082 281.162 472.204 282.899C473.326 284.672 473.887 286.772 473.887 289.196C473.887 291.802 473.308 294.173 472.15 296.308C470.955 298.444 469.381 300.271 467.427 301.791C465.436 303.311 463.12 304.47 460.478 305.266C457.872 306.098 455.121 306.515 452.226 306.515C449.837 306.515 447.521 306.243 445.277 305.7C443.033 305.121 440.97 304.343 439.088 303.366C437.206 302.389 435.577 301.23 434.202 299.891C432.79 298.552 431.705 297.104 430.944 295.548C430.438 294.607 430.365 293.811 430.727 293.159C431.089 292.508 431.596 292.019 432.247 291.694C433.044 291.296 433.786 291.205 434.473 291.422C435.161 291.639 435.885 292.182 436.645 293.051C437.296 294.245 438.165 295.331 439.251 296.308C440.373 297.249 441.621 298.064 442.997 298.751C444.372 299.439 445.874 299.964 447.503 300.326C449.131 300.688 450.814 300.868 452.551 300.868C454.361 300.868 456.153 300.615 457.926 300.108C459.699 299.638 461.292 298.914 462.703 297.937C464.115 296.996 465.273 295.802 466.178 294.354C467.047 292.942 467.481 291.296 467.481 289.414C467.481 287.713 467.047 286.283 466.178 285.125C465.273 283.967 464.097 282.971 462.649 282.139C461.201 281.306 459.555 280.601 457.709 280.022C455.899 279.443 454.053 278.882 452.171 278.339C449.746 277.796 447.34 277.126 444.951 276.33ZM499.131 303.149C499.131 303.945 498.86 304.614 498.317 305.157C497.738 305.7 497.068 305.972 496.308 305.972C495.512 305.972 494.842 305.7 494.299 305.157C493.72 304.614 493.431 303.945 493.431 303.149V250.977C493.431 250.145 493.72 249.475 494.299 248.968C494.842 248.426 495.512 248.154 496.308 248.154C497.068 248.154 497.738 248.426 498.317 248.968C498.86 249.475 499.131 250.145 499.131 250.977V303.149ZM493.757 236.753C494.444 236.03 495.313 235.668 496.362 235.668C497.376 235.668 498.226 236.03 498.914 236.753C499.638 237.441 500 238.31 500 239.359C500 240.409 499.638 241.277 498.914 241.965C498.226 242.689 497.376 243.051 496.362 243.051C495.313 243.051 494.444 242.689 493.757 241.965C493.033 241.277 492.671 240.409 492.671 239.359C492.671 238.31 493.033 237.441 493.757 236.753ZM152.28 273.561C152.063 273.127 152.045 272.693 152.226 272.258C152.407 271.824 152.733 271.516 153.203 271.335C153.637 271.154 154.072 271.136 154.506 271.281C154.94 271.462 155.266 271.788 155.483 272.258L167.59 300.434L179.696 272.258C179.913 271.824 180.239 271.516 180.673 271.335C181.071 271.154 181.488 271.154 181.922 271.335C182.392 271.516 182.718 271.824 182.899 272.258C183.08 272.693 183.08 273.127 182.899 273.561L169.164 305.429C169.019 305.791 168.784 306.062 168.458 306.243C168.132 306.424 167.807 306.515 167.481 306.515C167.155 306.478 166.866 306.388 166.612 306.243C166.323 306.062 166.106 305.791 165.961 305.429L152.28 273.561ZM196.145 306.515C195.675 306.478 195.277 306.279 194.951 305.917C194.662 305.592 194.517 305.193 194.517 304.723V272.855C194.517 272.349 194.698 271.933 195.06 271.607C195.422 271.281 195.838 271.118 196.308 271.118H214.712C215.183 271.118 215.581 271.281 215.907 271.607C216.232 271.969 216.395 272.385 216.395 272.855C216.395 273.362 216.232 273.778 215.907 274.104C215.581 274.43 215.183 274.593 214.712 274.593H197.991V287.133H211.021C211.491 287.133 211.889 287.296 212.215 287.622C212.577 287.948 212.758 288.364 212.758 288.871C212.758 289.341 212.577 289.739 212.215 290.065C211.889 290.391 211.491 290.554 211.021 290.554H197.991V303.04H214.712C215.183 303.04 215.581 303.203 215.907 303.529C216.232 303.891 216.395 304.307 216.395 304.777C216.395 305.284 216.232 305.7 215.907 306.026C215.581 306.352 215.183 306.515 214.712 306.515H196.145ZM269.055 236.428C269.779 235.668 270.666 235.288 271.715 235.288C272.765 235.288 273.67 235.668 274.43 236.428C275.154 237.151 275.516 238.038 275.516 239.088C275.516 240.137 275.154 241.024 274.43 241.748C273.67 242.472 272.765 242.834 271.715 242.834C270.666 242.834 269.779 242.472 269.055 241.748C268.331 241.024 267.97 240.137 267.97 239.088C267.97 238.038 268.331 237.151 269.055 236.428ZM293.594 236.428C294.354 235.668 295.259 235.288 296.308 235.288C297.322 235.288 298.208 235.668 298.968 236.428C299.692 237.151 300.054 238.038 300.054 239.088C300.054 240.137 299.692 241.024 298.968 241.748C298.208 242.472 297.322 242.834 296.308 242.834C295.259 242.834 294.354 242.472 293.594 241.748C292.87 241.024 292.508 240.137 292.508 239.088C292.508 238.038 292.87 237.151 293.594 236.428Z" fill="#272525"/>
</svg>
